<svg xmlns="http://www.w3.org/2000/svg" viewBox="0 0 32 32" id="website">
  <g>
    <path d="M3 2.84h.48v.48a.5.5 0 0 0 1 0V2.84H5a.5.5 0 0 0 0-1H4.52V1.36a.5.5 0 1 0-1 0v.48H3a.5.5 0 0 0 0 1zM28.68 29.16h-.48v-.48a.5.5 0 0 0-1 0v.48h-.48a.5.5 0 0 0 0 1h.48v.48a.5.5 0 0 0 1 0v-.48h.48a.5.5 0 0 0 0-1zM29.44 23.38h-.18a2.52 2.52 0 0 0 .54-1.54V7.42a2.54 2.54 0 0 0-2.54-2.54H4.75A2.54 2.54 0 0 0 2.21 7.42V21.83a2.52 2.52 0 0 0 .54 1.54H2.56a1.88 1.88 0 0 0 0 3.75H29.44a1.88 1.88 0 0 0 0-3.75zM3.21 21.83V7.42A1.54 1.54 0 0 1 4.75 5.88h22.5a1.54 1.54 0 0 1 1.54 1.54V21.83a1.54 1.54 0 0 1-1.54 1.54H4.75A1.54 1.54 0 0 1 3.21 21.83zm26.23 4.29H2.56a.87.87 0 0 1-.85-.9.86.86 0 0 1 .85-.85H29.44a.87.87 0 0 1 .85.9A.86.86 0 0 1 29.44 26.13z"></path>
    <path d="M16,10a5,5,0,1,0,5,5A5,5,0,0,0,16,10Zm3.9,4.45H18.79a7.1,7.1,0,0,0-.71-2.84A3.94,3.94,0,0,1,19.9,14.5Zm-4.4-3.26V14.5H14.2A4.42,4.42,0,0,1,15.5,11.24Zm0,4.26v3.26a4.42,4.42,0,0,1-1.3-3.26Zm1,3.26V15.5h1.3A4.42,4.42,0,0,1,16.5,18.76Zm0-4.26V11.24a4.42,4.42,0,0,1,1.3,3.26Zm-2.59-2.84a7.1,7.1,0,0,0-.71,2.84H12.1A3.94,3.94,0,0,1,13.91,11.66ZM12.1,15.5h1.11a7.1,7.1,0,0,0,.71,2.84A3.94,3.94,0,0,1,12.1,15.5Zm6,2.84a7.1,7.1,0,0,0,.71-2.84H19.9A3.94,3.94,0,0,1,18.09,18.34Z"></path>
  </g>
</svg>
